<svg width="1123" height="1206" xmlns="http://www.w3.org/2000/svg" xmlns:xlink="http://www.w3.org/1999/xlink" overflow="hidden"><defs><clipPath id="clip0"><rect x="1480" y="517" width="1123" height="1206"/></clipPath></defs><g clip-path="url(#clip0)" transform="translate(-1480 -517)"><path d="M1755 1057 2326 1057 2040.5 1441Z" stroke="#B0B0B0" stroke-width="137.5" stroke-linecap="butt" stroke-linejoin="round" stroke-miterlimit="10" stroke-opacity="1" fill="#B0B0B0" fill-rule="evenodd" fill-opacity="1"/><path d="M1898.5 570.001C1898.5 543.767 1919.77 522.5 1946 522.5L2136 522.5C2162.23 522.5 2183.5 543.767 2183.5 570.001L2183.5 1010C2183.5 1036.23 2162.23 1057.5 2136 1057.5L1946 1057.5C1919.77 1057.5 1898.5 1036.23 1898.5 1010Z" stroke="#B0B0B0" stroke-width="4.58333" stroke-linecap="butt" stroke-linejoin="miter" stroke-miterlimit="8" stroke-opacity="1" fill="#B0B0B0" fill-rule="evenodd" fill-opacity="1"/><path d="M1485.5 1349.67C1485.5 1340.74 1492.74 1333.5 1501.67 1333.5L1566.33 1333.5C1575.26 1333.5 1582.5 1340.74 1582.5 1349.67L1582.5 1701.33C1582.5 1710.26 1575.26 1717.5 1566.33 1717.5L1501.67 1717.5C1492.74 1717.5 1485.5 1710.26 1485.5 1701.33Z" stroke="#B0B0B0" stroke-width="4.58333" stroke-linecap="butt" stroke-linejoin="miter" stroke-miterlimit="8" stroke-opacity="1" fill="#B0B0B0" fill-rule="evenodd" fill-opacity="1"/><path d="M2580.17 1619.5C2589.19 1619.5 2596.5 1626.81 2596.5 1635.83L2596.5 1701.17C2596.5 1710.19 2589.19 1717.5 2580.17 1717.5L1501.83 1717.5C1492.81 1717.5 1485.5 1710.19 1485.5 1701.17L1485.5 1635.83C1485.5 1626.81 1492.81 1619.5 1501.83 1619.5Z" stroke="#B0B0B0" stroke-width="4.58333" stroke-linecap="butt" stroke-linejoin="miter" stroke-miterlimit="8" stroke-opacity="1" fill="#B0B0B0" fill-rule="evenodd" fill-opacity="1"/><path d="M2499.5 1341.67C2499.5 1332.74 2506.74 1325.5 2515.67 1325.5L2580.33 1325.5C2589.26 1325.5 2596.5 1332.74 2596.5 1341.67L2596.5 1693.33C2596.5 1702.26 2589.26 1709.5 2580.33 1709.5L2515.67 1709.5C2506.74 1709.5 2499.5 1702.26 2499.5 1693.33Z" stroke="#B0B0B0" stroke-width="4.58333" stroke-linecap="butt" stroke-linejoin="miter" stroke-miterlimit="8" stroke-opacity="1" fill="#B0B0B0" fill-rule="evenodd" fill-opacity="1"/></g></svg>