<svg width="1430" height="1457" xmlns="http://www.w3.org/2000/svg" xmlns:xlink="http://www.w3.org/1999/xlink" overflow="hidden"><defs><clipPath id="clip0"><rect x="1549" y="527" width="1430" height="1457"/></clipPath></defs><g clip-path="url(#clip0)" transform="translate(-1549 -527)"><path d="M1593.5 570.5 2935.5 570.5 2264.5 1450.5Z" stroke="#B0B0B0" stroke-width="82.5" stroke-linecap="butt" stroke-linejoin="round" stroke-miterlimit="10" stroke-opacity="1" fill="#B0B0B0" fill-rule="evenodd" fill-opacity="1"/><path d="M0 257 162.552 0 805 0 642.448 257Z" stroke="#B0B0B0" stroke-width="82.5" stroke-linecap="butt" stroke-linejoin="round" stroke-miterlimit="10" stroke-opacity="1" fill="#B0B0B0" fill-rule="evenodd" fill-opacity="1" transform="matrix(-6.12323e-17 -1 -1 6.12323e-17 2392.5 1940.5)"/><path d="M2149.31 1249.07C2156.62 1264.05 2161.04 1280.14 2162.28 1296.27L2107.69 1293.79C2106.34 1286.23 2103.76 1278.68 2100.11 1271.54Z" stroke="#B0B0B0" stroke-width="32.0833" stroke-linecap="butt" stroke-linejoin="miter" stroke-miterlimit="8" stroke-opacity="1" fill="#B0B0B0" fill-rule="evenodd" fill-opacity="1"/><path d="M128.062 0.414705C144.682 1.71931 160.79 6.08002 175.314 13.2065L145.463 58.9767C138.261 56.3041 130.451 54.6873 122.449 54.2123Z" stroke="#B0B0B0" stroke-width="32.0833" stroke-linecap="butt" stroke-linejoin="miter" stroke-miterlimit="8" stroke-opacity="1" fill="#B0B0B0" fill-rule="evenodd" fill-opacity="1" transform="matrix(-0.507728 0.861517 0.861517 0.507728 2443.1 1138.53)"/></g></svg>