<svg width="1077" height="1136" xmlns="http://www.w3.org/2000/svg" xmlns:xlink="http://www.w3.org/1999/xlink" overflow="hidden"><defs><clipPath id="clip0"><rect x="1379" y="582" width="1077" height="1136"/></clipPath></defs><g clip-path="url(#clip0)" transform="translate(-1379 -582)"><path d="M1421.5 627.5 2412.5 627.5 1917 1294.5Z" stroke="#FFFFFF" stroke-width="82.5" stroke-linecap="butt" stroke-linejoin="round" stroke-miterlimit="10" stroke-opacity="1" fill="#FFFFFF" fill-rule="evenodd" fill-opacity="1"/><path d="M0 189 119.542 0 610 0 490.457 189Z" stroke="#FFFFFF" stroke-width="82.5" stroke-linecap="butt" stroke-linejoin="round" stroke-miterlimit="10" stroke-opacity="1" fill="#FFFFFF" fill-rule="evenodd" fill-opacity="1" transform="matrix(-6.12323e-17 -1 -1 6.12323e-17 2011.5 1673.5)"/><path d="M1824.72 1150.33C1830.19 1161.41 1833.61 1173.28 1834.77 1185.18L1794.36 1183.34C1793.18 1177.77 1791.17 1172.2 1788.43 1166.91Z" stroke="#FFFFFF" stroke-width="32.0833" stroke-linecap="butt" stroke-linejoin="miter" stroke-miterlimit="8" stroke-opacity="1" fill="#FFFFFF" fill-rule="evenodd" fill-opacity="1"/><path d="M96.7909 0.290175C109.114 1.20756 121.076 4.28548 131.912 9.32738L109.813 43.2117C104.413 41.3936 98.5968 40.2975 92.6498 39.9772Z" stroke="#FFFFFF" stroke-width="32.0833" stroke-linecap="butt" stroke-linejoin="miter" stroke-miterlimit="8" stroke-opacity="1" fill="#FFFFFF" fill-rule="evenodd" fill-opacity="1" transform="matrix(-0.507728 0.861517 0.861517 0.507728 2057.35 1066.8)"/></g></svg>