<svg width="1123" height="1122" xmlns="http://www.w3.org/2000/svg" xmlns:xlink="http://www.w3.org/1999/xlink" overflow="hidden"><defs><clipPath id="clip0"><rect x="1471" y="165" width="1123" height="1122"/></clipPath></defs><g clip-path="url(#clip0)" transform="translate(-1471 -165)"><path d="M2566 1149.5C2578.43 1149.5 2588.5 1159.57 2588.5 1172L2588.5 1262C2588.5 1274.43 2578.43 1284.5 2566 1284.5L1500 1284.5C1487.57 1284.5 1477.5 1274.43 1477.5 1262L1477.5 1172C1477.5 1159.57 1487.57 1149.5 1500 1149.5Z" stroke="#0066CC" stroke-width="4.58333" stroke-linecap="butt" stroke-linejoin="miter" stroke-miterlimit="8" stroke-opacity="1" fill="#0066CC" fill-rule="evenodd" fill-opacity="1"/><path d="M2565.83 173.5C2578.35 173.5 2588.5 183.649 2588.5 196.168L2588.5 286.833C2588.5 299.352 2578.35 309.5 2565.83 309.5L1500.17 309.5C1487.65 309.5 1477.5 299.352 1477.5 286.833L1477.5 196.168C1477.5 183.649 1487.65 173.5 1500.17 173.5Z" stroke="#0066CC" stroke-width="4.58333" stroke-linecap="butt" stroke-linejoin="miter" stroke-miterlimit="8" stroke-opacity="1" fill="#0066CC" fill-rule="evenodd" fill-opacity="1"/><path d="M2453.5 196.001C2453.5 183.574 2463.57 173.5 2476 173.5L2566 173.5C2578.43 173.5 2588.5 183.574 2588.5 196.001L2588.5 1262C2588.5 1274.43 2578.43 1284.5 2566 1284.5L2476 1284.5C2463.57 1284.5 2453.5 1274.43 2453.5 1262Z" stroke="#0066CC" stroke-width="4.58333" stroke-linecap="butt" stroke-linejoin="miter" stroke-miterlimit="8" stroke-opacity="1" fill="#0066CC" fill-rule="evenodd" fill-opacity="1"/><path d="M1477.5 196.001C1477.5 183.574 1487.57 173.5 1500 173.5L1590 173.5C1602.43 173.5 1612.5 183.574 1612.5 196.001L1612.5 1262C1612.5 1274.43 1602.43 1284.5 1590 1284.5L1500 1284.5C1487.57 1284.5 1477.5 1274.43 1477.5 1262Z" stroke="#0066CC" stroke-width="4.58333" stroke-linecap="butt" stroke-linejoin="miter" stroke-miterlimit="8" stroke-opacity="1" fill="#0066CC" fill-rule="evenodd" fill-opacity="1"/><path d="M2165.5 169.5 2165.5 311.4" stroke="#FFFFFF" stroke-width="132.917" stroke-linecap="butt" stroke-linejoin="miter" stroke-miterlimit="8" stroke-opacity="1" fill="none" fill-rule="evenodd"/><path d="M2592.4 596.5 2450.5 596.5" stroke="#FFFFFF" stroke-width="132.917" stroke-linecap="butt" stroke-linejoin="miter" stroke-miterlimit="8" stroke-opacity="1" fill="none" fill-rule="evenodd"/><path d="M2485.17 180.823C2493.98 172.016 2508.26 172.016 2517.06 180.823L2580.84 244.603C2589.65 253.409 2589.65 267.688 2580.84 276.494L2146.04 711.293C2137.24 720.1 2122.96 720.1 2114.15 711.293L2050.37 647.513C2041.57 638.707 2041.57 624.428 2050.37 615.622Z" stroke="#0066CC" stroke-width="4.58333" stroke-linecap="butt" stroke-linejoin="miter" stroke-miterlimit="8" stroke-opacity="1" fill="#0066CC" fill-rule="evenodd" fill-opacity="1"/></g></svg>