<svg width="985" height="981" xmlns="http://www.w3.org/2000/svg" xmlns:xlink="http://www.w3.org/1999/xlink" overflow="hidden"><defs><clipPath id="clip0"><rect x="1659" y="586" width="985" height="981"/></clipPath></defs><g clip-path="url(#clip0)" transform="translate(-1659 -586)"><path d="M1733.5 982.871 2140.5 681.5 2547.5 982.871 2392.04 1470.5 1888.96 1470.5Z" stroke="#7F7F7F" stroke-width="55" stroke-linecap="butt" stroke-linejoin="miter" stroke-miterlimit="8" stroke-opacity="1" fill="none" fill-rule="evenodd"/><path d="M2480.5 966.5C2480.5 930.049 2510.5 900.5 2547.5 900.5 2584.5 900.5 2614.5 930.049 2614.5 966.5 2614.5 1002.95 2584.5 1032.5 2547.5 1032.5 2510.5 1032.5 2480.5 1002.95 2480.5 966.5Z" stroke="#7F7F7F" stroke-width="55" stroke-linecap="butt" stroke-linejoin="miter" stroke-miterlimit="8" stroke-opacity="1" fill="#FFFFFF" fill-rule="evenodd" fill-opacity="1"/><path d="M2073.5 681.5C2073.5 645.049 2103.5 615.5 2140.5 615.5 2177.5 615.5 2207.5 645.049 2207.5 681.5 2207.5 717.951 2177.5 747.5 2140.5 747.5 2103.5 747.5 2073.5 717.951 2073.5 681.5Z" stroke="#7F7F7F" stroke-width="55" stroke-linecap="butt" stroke-linejoin="miter" stroke-miterlimit="8" stroke-opacity="1" fill="#FFFFFF" fill-rule="evenodd" fill-opacity="1"/><path d="M1690.5 968.5C1690.5 932.049 1720.72 902.5 1758 902.5 1795.28 902.5 1825.5 932.049 1825.5 968.5 1825.5 1004.95 1795.28 1034.5 1758 1034.5 1720.72 1034.5 1690.5 1004.95 1690.5 968.5Z" stroke="#7F7F7F" stroke-width="55" stroke-linecap="butt" stroke-linejoin="miter" stroke-miterlimit="8" stroke-opacity="1" fill="#FFFFFF" fill-rule="evenodd" fill-opacity="1"/><path d="M2311.5 1472.5C2311.5 1436.05 2341.5 1406.5 2378.5 1406.5 2415.5 1406.5 2445.5 1436.05 2445.5 1472.5 2445.5 1508.95 2415.5 1538.5 2378.5 1538.5 2341.5 1538.5 2311.5 1508.95 2311.5 1472.5Z" stroke="#7F7F7F" stroke-width="55" stroke-linecap="butt" stroke-linejoin="miter" stroke-miterlimit="8" stroke-opacity="1" fill="#FFFFFF" fill-rule="evenodd" fill-opacity="1"/><path d="M1825.5 1470.5C1825.5 1434.05 1855.5 1404.5 1892.5 1404.5 1929.5 1404.5 1959.5 1434.05 1959.5 1470.5 1959.5 1506.95 1929.5 1536.5 1892.5 1536.5 1855.5 1536.5 1825.5 1506.95 1825.5 1470.5Z" stroke="#7F7F7F" stroke-width="55" stroke-linecap="butt" stroke-linejoin="miter" stroke-miterlimit="8" stroke-opacity="1" fill="#FFFFFF" fill-rule="evenodd" fill-opacity="1"/></g></svg>