<svg width="1513" height="1498" xmlns="http://www.w3.org/2000/svg" xmlns:xlink="http://www.w3.org/1999/xlink" overflow="hidden"><defs><clipPath id="clip0"><rect x="1654" y="605" width="1513" height="1498"/></clipPath></defs><g clip-path="url(#clip0)" transform="translate(-1654 -605)"><path d="M1766.5 1198.99 2405.5 726.5 3044.5 1198.99 2800.42 1963.5 2010.58 1963.5Z" stroke="#969696" stroke-width="82.5" stroke-linecap="butt" stroke-linejoin="miter" stroke-miterlimit="8" stroke-opacity="1" fill="none" fill-rule="evenodd"/><path d="M2913.5 1175.5C2913.5 1118.06 2960.73 1071.5 3019 1071.5 3077.27 1071.5 3124.5 1118.06 3124.5 1175.5 3124.5 1232.94 3077.27 1279.5 3019 1279.5 2960.73 1279.5 2913.5 1232.94 2913.5 1175.5Z" stroke="#969696" stroke-width="82.5" stroke-linecap="butt" stroke-linejoin="miter" stroke-miterlimit="8" stroke-opacity="1" fill="#FFFFFF" fill-rule="evenodd" fill-opacity="1"/><path d="M2299.5 751C2299.5 693.839 2346.73 647.5 2405 647.5 2463.27 647.5 2510.5 693.839 2510.5 751 2510.5 808.162 2463.27 854.5 2405 854.5 2346.73 854.5 2299.5 808.162 2299.5 751Z" stroke="#969696" stroke-width="82.5" stroke-linecap="butt" stroke-linejoin="miter" stroke-miterlimit="8" stroke-opacity="1" fill="#FFFFFF" fill-rule="evenodd" fill-opacity="1"/><path d="M1700.5 1175.5C1700.5 1118.06 1747.73 1071.5 1806 1071.5 1864.27 1071.5 1911.5 1118.06 1911.5 1175.5 1911.5 1232.94 1864.27 1279.5 1806 1279.5 1747.73 1279.5 1700.5 1232.94 1700.5 1175.5Z" stroke="#969696" stroke-width="82.5" stroke-linecap="butt" stroke-linejoin="miter" stroke-miterlimit="8" stroke-opacity="1" fill="#FFFFFF" fill-rule="evenodd" fill-opacity="1"/><path d="M2668.5 1955.5C2668.5 1898.06 2715.73 1851.5 2774 1851.5 2832.27 1851.5 2879.5 1898.06 2879.5 1955.5 2879.5 2012.94 2832.27 2059.5 2774 2059.5 2715.73 2059.5 2668.5 2012.94 2668.5 1955.5Z" stroke="#969696" stroke-width="82.5" stroke-linecap="butt" stroke-linejoin="miter" stroke-miterlimit="8" stroke-opacity="1" fill="#FFFFFF" fill-rule="evenodd" fill-opacity="1"/><path d="M1911.5 1955.5C1911.5 1898.06 1958.73 1851.5 2017 1851.5 2075.27 1851.5 2122.5 1898.06 2122.5 1955.5 2122.5 2012.94 2075.27 2059.5 2017 2059.5 1958.73 2059.5 1911.5 2012.94 1911.5 1955.5Z" stroke="#969696" stroke-width="82.5" stroke-linecap="butt" stroke-linejoin="miter" stroke-miterlimit="8" stroke-opacity="1" fill="#FFFFFF" fill-rule="evenodd" fill-opacity="1"/></g></svg>