<svg width="1339" height="1481" xmlns="http://www.w3.org/2000/svg" xmlns:xlink="http://www.w3.org/1999/xlink" overflow="hidden"><defs><clipPath id="clip0"><rect x="508" y="430" width="1339" height="1481"/></clipPath></defs><g clip-path="url(#clip0)" transform="translate(-508 -430)"><path d="M573.975 1618.75C532.269 1585.45 525.455 1524.64 558.756 1482.94L1345.2 497.991C1378.5 456.285 1439.31 449.471 1481.01 482.772L1783.07 723.951C1824.77 757.252 1831.58 818.057 1798.28 859.763L1011.84 1844.71C978.54 1886.41 917.734 1893.23 876.028 1859.93Z" stroke="#7F7F7F" stroke-width="55" stroke-linecap="butt" stroke-linejoin="miter" stroke-miterlimit="8" stroke-opacity="1" fill="none" fill-rule="evenodd"/><path d="M819.576 1608.94 1025.88 1773.66" stroke="#7F7F7F" stroke-width="55" stroke-linecap="round" stroke-linejoin="miter" stroke-miterlimit="8" stroke-opacity="1" fill="none" fill-rule="evenodd"/><path d="M1036.79 1601.33 1114.16 1663.1" stroke="#7F7F7F" stroke-width="55" stroke-linecap="round" stroke-linejoin="miter" stroke-miterlimit="8" stroke-opacity="1" fill="none" fill-rule="evenodd"/><path d="M996.133 1387.82 1202.44 1552.54" stroke="#7F7F7F" stroke-width="55" stroke-linecap="round" stroke-linejoin="miter" stroke-miterlimit="8" stroke-opacity="1" fill="none" fill-rule="evenodd"/><path d="M1213.35 1380.21 1290.72 1441.98" stroke="#7F7F7F" stroke-width="55" stroke-linecap="round" stroke-linejoin="miter" stroke-miterlimit="8" stroke-opacity="1" fill="none" fill-rule="evenodd"/><path d="M1179.24 1171.93 1385.55 1336.65" stroke="#7F7F7F" stroke-width="55" stroke-linecap="round" stroke-linejoin="miter" stroke-miterlimit="8" stroke-opacity="1" fill="none" fill-rule="evenodd"/><path d="M1396.46 1164.32 1473.82 1226.09" stroke="#7F7F7F" stroke-width="55" stroke-linecap="round" stroke-linejoin="miter" stroke-miterlimit="8" stroke-opacity="1" fill="none" fill-rule="evenodd"/><path d="M1352.64 948.283 1558.94 1113.01" stroke="#7F7F7F" stroke-width="55" stroke-linecap="round" stroke-linejoin="miter" stroke-miterlimit="8" stroke-opacity="1" fill="none" fill-rule="evenodd"/><path d="M1569.86 940.677 1647.22 1002.45" stroke="#7F7F7F" stroke-width="55" stroke-linecap="round" stroke-linejoin="miter" stroke-miterlimit="8" stroke-opacity="1" fill="none" fill-rule="evenodd"/><path d="M1529.2 727.163 1735.5 891.889" stroke="#7F7F7F" stroke-width="55" stroke-linecap="round" stroke-linejoin="miter" stroke-miterlimit="8" stroke-opacity="1" fill="none" fill-rule="evenodd"/></g></svg>