<svg width="1659" height="1659" xmlns="http://www.w3.org/2000/svg" xmlns:xlink="http://www.w3.org/1999/xlink" overflow="hidden"><defs><clipPath id="clip0"><rect x="1434" y="394" width="1659" height="1659"/></clipPath></defs><g clip-path="url(#clip0)" transform="translate(-1434 -394)"><path d="M1439.5 675.505C1439.5 523.624 1562.62 400.5 1714.51 400.5L2814.49 400.5C2966.38 400.5 3089.5 523.624 3089.5 675.505L3089.5 1775.49C3089.5 1927.38 2966.38 2050.5 2814.49 2050.5L1714.51 2050.5C1562.62 2050.5 1439.5 1927.38 1439.5 1775.49Z" stroke="#808080" stroke-width="4.58333" stroke-linecap="butt" stroke-linejoin="miter" stroke-miterlimit="8" stroke-opacity="1" fill="#808080" fill-rule="evenodd" fill-opacity="1"/><path d="M1593.5 570.5 2935.5 570.5 2264.5 1450.5Z" stroke="#FFFFFF" stroke-width="82.5" stroke-linecap="butt" stroke-linejoin="round" stroke-miterlimit="10" stroke-opacity="1" fill="#FFFFFF" fill-rule="evenodd" fill-opacity="1"/><path d="M0 257 162.552 0 805 0 642.448 257Z" stroke="#FFFFFF" stroke-width="82.5" stroke-linecap="butt" stroke-linejoin="round" stroke-miterlimit="10" stroke-opacity="1" fill="#FFFFFF" fill-rule="evenodd" fill-opacity="1" transform="matrix(-6.12323e-17 -1 -1 6.12323e-17 2392.5 1940.5)"/><path d="M2149.31 1249.07C2156.62 1264.05 2161.04 1280.14 2162.28 1296.27L2107.69 1293.79C2106.34 1286.23 2103.76 1278.68 2100.11 1271.54Z" stroke="#FFFFFF" stroke-width="32.0833" stroke-linecap="butt" stroke-linejoin="miter" stroke-miterlimit="8" stroke-opacity="1" fill="#FFFFFF" fill-rule="evenodd" fill-opacity="1"/><path d="M128.062 0.414705C144.682 1.71931 160.79 6.08002 175.314 13.2065L145.463 58.9767C138.261 56.3041 130.451 54.6873 122.449 54.2123Z" stroke="#FFFFFF" stroke-width="32.0833" stroke-linecap="butt" stroke-linejoin="miter" stroke-miterlimit="8" stroke-opacity="1" fill="#FFFFFF" fill-rule="evenodd" fill-opacity="1" transform="matrix(-0.507728 0.861517 0.861517 0.507728 2443.1 1138.53)"/></g></svg>