<svg width="1549" height="1549" xmlns="http://www.w3.org/2000/svg" xmlns:xlink="http://www.w3.org/1999/xlink" overflow="hidden"><defs><clipPath id="clip0"><rect x="1182" y="362" width="1549" height="1549"/></clipPath></defs><g clip-path="url(#clip0)" transform="translate(-1182 -362)"><path d="M1188.5 622.839C1188.5 481.267 1303.27 366.5 1444.84 366.5L2470.16 366.5C2611.73 366.5 2726.5 481.267 2726.5 622.839L2726.5 1648.16C2726.5 1789.73 2611.73 1904.5 2470.16 1904.5L1444.84 1904.5C1303.27 1904.5 1188.5 1789.73 1188.5 1648.16Z" stroke="#808080" stroke-width="4.58333" stroke-linecap="butt" stroke-linejoin="miter" stroke-miterlimit="8" stroke-opacity="1" fill="#808080" fill-rule="evenodd" fill-opacity="1"/><path d="M1614.5 757.5C1614.5 570.828 1766.05 419.5 1953 419.5 2139.95 419.5 2291.5 570.828 2291.5 757.5 2291.5 944.172 2139.95 1095.5 1953 1095.5 1766.05 1095.5 1614.5 944.172 1614.5 757.5Z" stroke="#FFFFFF" stroke-width="4.58333" stroke-linecap="butt" stroke-linejoin="miter" stroke-miterlimit="8" stroke-opacity="1" fill="#FFFFFF" fill-rule="evenodd" fill-opacity="1"/><path d="M1417.76 1844.05C1316.74 1598.76 1448.73 1274.49 1539.69 1155.12 1630.65 1035.75 1844.61 1127.62 1963.55 1127.86 2082.49 1128.1 2291.9 1019.3 2382.8 1154.27 2473.69 1289.24 2602.8 1601.36 2500.79 1846.25L1417.76 1844.05Z" stroke="#FFFFFF" stroke-width="4.58333" stroke-linecap="butt" stroke-linejoin="miter" stroke-miterlimit="8" stroke-opacity="1" fill="#FFFFFF" fill-rule="evenodd" fill-opacity="1"/></g></svg>