<svg width="2104" height="2104" xmlns="http://www.w3.org/2000/svg" xmlns:xlink="http://www.w3.org/1999/xlink" overflow="hidden"><defs><clipPath id="clip0"><rect x="1049" y="270" width="2104" height="2104"/></clipPath></defs><g clip-path="url(#clip0)" transform="translate(-1049 -270)"><path d="M1066 631.34C1066 440.614 1220.61 286 1411.34 286L2792.66 286C2983.39 286 3138 440.614 3138 631.34L3138 2012.66C3138 2203.39 2983.39 2358 2792.66 2358L1411.34 2358C1220.61 2358 1066 2203.39 1066 2012.66Z" stroke="#808080" stroke-width="27.5" stroke-linecap="butt" stroke-linejoin="miter" stroke-miterlimit="8" stroke-opacity="1" fill="#FFFFFF" fill-rule="evenodd" fill-opacity="1"/><text fill="#FFFFFF" fill-opacity="1" font-family="Calibri,Calibri_MSFontService,sans-serif" font-style="normal" font-variant="normal" font-weight="400" font-stretch="normal" font-size="83" text-anchor="start" direction="ltr" writing-mode="lr-tb" unicode-bidi="normal" text-decoration="none" transform="matrix(1 0 0 1 2081.15 1349)">≈</text><path d="M2850.64 1524.68C2740.64 1939.05 2315.56 2185.79 1901.19 2075.79 1486.83 1965.8 1240.08 1540.72 1350.08 1126.35 1460.08 711.983 1885.16 465.242 2299.52 575.238 2456.89 617.013 2597.14 707.213 2700.43 833.078" stroke="#7F7F7F" stroke-width="229.167" stroke-linecap="round" stroke-linejoin="miter" stroke-miterlimit="8" stroke-opacity="1" fill="none" fill-rule="evenodd"/><path d="M2445.31 980.559 2848.54 577.331 2918.43 1050.45Z" stroke="#7F7F7F" stroke-width="137.5" stroke-linecap="butt" stroke-linejoin="round" stroke-miterlimit="10" stroke-opacity="1" fill="#7F7F7F" fill-rule="evenodd" fill-opacity="1"/></g></svg>