<svg width="2113" height="2897" xmlns="http://www.w3.org/2000/svg" xmlns:xlink="http://www.w3.org/1999/xlink" overflow="hidden"><defs><clipPath id="clip0"><rect x="1063" y="50" width="2113" height="2897"/></clipPath></defs><g clip-path="url(#clip0)" transform="translate(-1063 -50)"><path d="M1066.5 621.508C1066.5 427.652 1223.65 270.5 1417.51 270.5L2822.49 270.5C3016.35 270.5 3173.5 427.652 3173.5 621.508L3173.5 2025.49C3173.5 2219.35 3016.35 2376.5 2822.49 2376.5L1417.51 2376.5C1223.65 2376.5 1066.5 2219.35 1066.5 2025.49Z" stroke="#808080" stroke-width="4.58333" stroke-linecap="butt" stroke-linejoin="miter" stroke-miterlimit="8" stroke-opacity="1" fill="#808080" fill-rule="evenodd" fill-opacity="1"/><path d="M1262.5 1323.5C1262.5 849.64 1646.64 465.5 2120.5 465.5 2594.36 465.5 2978.5 849.64 2978.5 1323.5 2978.5 1797.36 2594.36 2181.5 2120.5 2181.5 1646.64 2181.5 1262.5 1797.36 1262.5 1323.5Z" stroke="#FFFFFF" stroke-width="229.167" stroke-linecap="butt" stroke-linejoin="miter" stroke-miterlimit="8" stroke-opacity="1" fill="none" fill-rule="evenodd"/><text fill="#FFFFFF" fill-opacity="1" font-family="Arial Rounded MT Bold,Arial Rounded MT Bold_MSFontService,sans-serif" font-style="normal" font-variant="normal" font-weight="700" font-stretch="normal" font-size="1375" text-anchor="start" direction="ltr" writing-mode="lr-tb" unicode-bidi="normal" text-decoration="none" transform="matrix(1 0 0 1 1932.84 1816)">i</text></g></svg>