<svg width="1187" height="1192" xmlns="http://www.w3.org/2000/svg" xmlns:xlink="http://www.w3.org/1999/xlink" overflow="hidden"><defs><clipPath id="clip0"><rect x="1503" y="421" width="1187" height="1192"/></clipPath></defs><g clip-path="url(#clip0)" transform="translate(-1503 -421)"><path d="M1519 632.504C1519 526.187 1605.19 440 1711.5 440L2481.5 440C2587.81 440 2674 526.187 2674 632.504L2674 1402.5C2674 1508.81 2587.81 1595 2481.5 1595L1711.5 1595C1605.19 1595 1519 1508.81 1519 1402.5Z" stroke="#808080" stroke-width="27.5" stroke-linecap="butt" stroke-linejoin="miter" stroke-miterlimit="8" stroke-opacity="1" fill="#FFFFFF" fill-rule="evenodd" fill-opacity="1"/><text fill="#FFFFFF" fill-opacity="1" font-family="Calibri,Calibri_MSFontService,sans-serif" font-style="normal" font-variant="normal" font-weight="400" font-stretch="normal" font-size="83" text-anchor="start" direction="ltr" writing-mode="lr-tb" unicode-bidi="normal" text-decoration="none" transform="matrix(1 0 0 1 2075.54 1045)">≈</text><path d="M1676.5 923.871 2084 622.5 2491.5 923.871 2335.85 1411.5 1832.15 1411.5Z" stroke="#7F7F7F" stroke-width="55" stroke-linecap="butt" stroke-linejoin="miter" stroke-miterlimit="8" stroke-opacity="1" fill="none" fill-rule="evenodd"/><path d="M2424.5 908.5C2424.5 872.049 2454.5 842.5 2491.5 842.5 2528.5 842.5 2558.5 872.049 2558.5 908.5 2558.5 944.951 2528.5 974.5 2491.5 974.5 2454.5 974.5 2424.5 944.951 2424.5 908.5Z" stroke="#7F7F7F" stroke-width="55" stroke-linecap="butt" stroke-linejoin="miter" stroke-miterlimit="8" stroke-opacity="1" fill="#FFFFFF" fill-rule="evenodd" fill-opacity="1"/><path d="M2016.5 622.5C2016.5 586.049 2046.72 556.5 2084 556.5 2121.28 556.5 2151.5 586.049 2151.5 622.5 2151.5 658.951 2121.28 688.5 2084 688.5 2046.72 688.5 2016.5 658.951 2016.5 622.5Z" stroke="#7F7F7F" stroke-width="55" stroke-linecap="butt" stroke-linejoin="miter" stroke-miterlimit="8" stroke-opacity="1" fill="#FFFFFF" fill-rule="evenodd" fill-opacity="1"/><path d="M1634.5 910.5C1634.5 874.049 1664.72 844.5 1702 844.5 1739.28 844.5 1769.5 874.049 1769.5 910.5 1769.5 946.951 1739.28 976.5 1702 976.5 1664.72 976.5 1634.5 946.951 1634.5 910.5Z" stroke="#7F7F7F" stroke-width="55" stroke-linecap="butt" stroke-linejoin="miter" stroke-miterlimit="8" stroke-opacity="1" fill="#FFFFFF" fill-rule="evenodd" fill-opacity="1"/><path d="M2254.5 1414.5C2254.5 1378.05 2284.72 1348.5 2322 1348.5 2359.28 1348.5 2389.5 1378.05 2389.5 1414.5 2389.5 1450.95 2359.28 1480.5 2322 1480.5 2284.72 1480.5 2254.5 1450.95 2254.5 1414.5Z" stroke="#7F7F7F" stroke-width="55" stroke-linecap="butt" stroke-linejoin="miter" stroke-miterlimit="8" stroke-opacity="1" fill="#FFFFFF" fill-rule="evenodd" fill-opacity="1"/><path d="M1769.5 1411.5C1769.5 1375.05 1799.5 1345.5 1836.5 1345.5 1873.5 1345.5 1903.5 1375.05 1903.5 1411.5 1903.5 1447.95 1873.5 1477.5 1836.5 1477.5 1799.5 1477.5 1769.5 1447.95 1769.5 1411.5Z" stroke="#7F7F7F" stroke-width="55" stroke-linecap="butt" stroke-linejoin="miter" stroke-miterlimit="8" stroke-opacity="1" fill="#FFFFFF" fill-rule="evenodd" fill-opacity="1"/></g></svg>