<svg width="1843" height="1842" xmlns="http://www.w3.org/2000/svg" xmlns:xlink="http://www.w3.org/1999/xlink" overflow="hidden"><defs><clipPath id="clip0"><rect x="1278" y="385" width="1843" height="1842"/></clipPath></defs><g clip-path="url(#clip0)" transform="translate(-1278 -385)"><path d="M1294 700.84C1294 534.138 1429.14 399 1595.84 399L2804.16 399C2970.86 399 3106 534.138 3106 700.84L3106 1908.16C3106 2074.86 2970.86 2210 2804.16 2210L1595.84 2210C1429.14 2210 1294 2074.86 1294 1908.16Z" stroke="#808080" stroke-width="27.5" stroke-linecap="butt" stroke-linejoin="miter" stroke-miterlimit="8" stroke-opacity="1" fill="#FFFFFF" fill-rule="evenodd" fill-opacity="1"/><text fill="#FFFFFF" fill-opacity="1" font-family="Calibri,Calibri_MSFontService,sans-serif" font-style="normal" font-variant="normal" font-weight="400" font-stretch="normal" font-size="83" text-anchor="start" direction="ltr" writing-mode="lr-tb" unicode-bidi="normal" text-decoration="none" transform="matrix(1 0 0 1 2179.38 1332)">≈</text><path d="M1413.5 1031.5 2200.5 640.5 2987.5 1031.5 2200.5 1422.5Z" stroke="#7F7F7F" stroke-width="55" stroke-linecap="butt" stroke-linejoin="round" stroke-miterlimit="10" stroke-opacity="1" fill="#7F7F7F" fill-rule="evenodd" fill-opacity="0.101961"/><path d="M1413.5 1305.5 2200.5 914.5 2987.5 1305.5 2200.5 1696.5Z" stroke="#7F7F7F" stroke-width="55" stroke-linecap="butt" stroke-linejoin="round" stroke-miterlimit="10" stroke-opacity="1" fill="#7F7F7F" fill-rule="evenodd" fill-opacity="0.25098"/><path d="M1413.5 1579.5 2200.5 1188.5 2987.5 1579.5 2200.5 1970.5Z" stroke="#7F7F7F" stroke-width="55" stroke-linecap="butt" stroke-linejoin="round" stroke-miterlimit="10" stroke-opacity="1" fill="#7F7F7F" fill-rule="evenodd" fill-opacity="0.4"/></g></svg>