<svg width="1169" height="1439" xmlns="http://www.w3.org/2000/svg" xmlns:xlink="http://www.w3.org/1999/xlink" overflow="hidden"><defs><clipPath id="clip0"><rect x="1622" y="641" width="1169" height="1439"/></clipPath></defs><g clip-path="url(#clip0)" transform="translate(-1622 -641)"><path d="M1862.5 987C1862.5 800.052 2013.83 648.5 2200.5 648.5 2387.17 648.5 2538.5 800.052 2538.5 987 2538.5 1173.95 2387.17 1325.5 2200.5 1325.5 2013.83 1325.5 1862.5 1173.95 1862.5 987Z" stroke="#FFFFFF" stroke-width="4.58333" stroke-linecap="butt" stroke-linejoin="miter" stroke-miterlimit="8" stroke-opacity="1" fill="#FFFFFF" fill-rule="evenodd" fill-opacity="1"/><path d="M1665.26 2073.58C1564.24 1828.29 1696.23 1504.02 1787.19 1384.65 1878.15 1265.28 2092.11 1357.14 2211.05 1357.39 2329.99 1357.62 2539.4 1248.83 2630.3 1383.8 2721.19 1518.77 2850.3 1830.89 2748.29 2075.77L1665.26 2073.58Z" stroke="#FFFFFF" stroke-width="4.58333" stroke-linecap="butt" stroke-linejoin="miter" stroke-miterlimit="8" stroke-opacity="1" fill="#FFFFFF" fill-rule="evenodd" fill-opacity="1"/></g></svg>